<svg width="26" height="21" viewBox="0 0 26 21" fill="none" xmlns="http://www.w3.org/2000/svg">
<path d="M12.06 8.59605C12.572 8.59605 13.016 8.69605 13.392 8.89605C13.776 9.08805 14.072 9.38405 14.28 9.78405C14.496 10.1841 14.604 10.6881 14.604 11.2961V14.9561H13.752V11.3801C13.752 10.7161 13.592 10.2161 13.272 9.88005C12.96 9.53605 12.516 9.36405 11.94 9.36405C11.508 9.36405 11.132 9.45605 10.812 9.64005C10.5 9.81605 10.256 10.0761 10.08 10.4201C9.912 10.7561 9.828 11.1641 9.828 11.6441V14.9561H8.976V11.3801C8.976 10.7161 8.816 10.2161 8.496 9.88005C8.176 9.53605 7.728 9.36405 7.152 9.36405C6.728 9.36405 6.356 9.45605 6.036 9.64005C5.716 9.81605 5.468 10.0761 5.292 10.4201C5.124 10.7561 5.04 11.1641 5.04 11.6441V14.9561H4.188V8.65605H5.004V10.3601L4.872 10.0601C5.064 9.60405 5.372 9.24805 5.796 8.99205C6.228 8.72805 6.736 8.59605 7.32 8.59605C7.936 8.59605 8.46 8.75205 8.892 9.06405C9.324 9.36805 9.604 9.82805 9.732 10.4441L9.396 10.3121C9.58 9.80005 9.904 9.38805 10.368 9.07605C10.84 8.75605 11.404 8.59605 12.06 8.59605ZM16.136 14.9561V14.3441L19.628 10.9241C19.948 10.6121 20.188 10.3401 20.348 10.1081C20.508 9.86805 20.616 9.64405 20.672 9.43605C20.728 9.22805 20.756 9.03205 20.756 8.84805C20.756 8.36005 20.588 7.97605 20.252 7.69605C19.924 7.41605 19.436 7.27605 18.788 7.27605C18.292 7.27605 17.852 7.35205 17.468 7.50405C17.092 7.65605 16.768 7.89205 16.496 8.21205L15.884 7.68405C16.212 7.30005 16.632 7.00405 17.144 6.79605C17.656 6.58805 18.228 6.48405 18.86 6.48405C19.428 6.48405 19.92 6.57605 20.336 6.76005C20.752 6.93605 21.072 7.19605 21.296 7.54005C21.528 7.88405 21.644 8.28805 21.644 8.75205C21.644 9.02405 21.604 9.29205 21.524 9.55605C21.452 9.82005 21.316 10.1001 21.116 10.3961C20.924 10.6841 20.64 11.0121 20.264 11.3801L17.06 14.5241L16.82 14.1881H22.028V14.9561H16.136Z" fill="#11142D"/>
<rect x="0.5" y="1.45605" width="25" height="19" rx="7.5" stroke="black"/>
</svg>
