<svg width="23" height="18" viewBox="0 0 23 18" fill="none" xmlns="http://www.w3.org/2000/svg">
<path d="M8.16 4.99998C8.16 7.2533 6.33332 9.07998 4.08 9.07998C1.82668 9.07998 0 7.2533 0 4.99998C0 2.74666 1.82668 0.919983 4.08 0.919983C6.33332 0.919983 8.16 2.74666 8.16 4.99998ZM2.31988 4.99998C2.31988 5.97207 3.10792 6.7601 4.08 6.7601C5.05208 6.7601 5.84012 5.97207 5.84012 4.99998C5.84012 4.0279 5.05208 3.23987 4.08 3.23987C3.10792 3.23987 2.31988 4.0279 2.31988 4.99998Z" fill="#FF5001"/>
<path d="M14.6403 13C14.6403 15.2533 16.467 17.08 18.7203 17.08C20.9736 17.08 22.8003 15.2533 22.8003 13C22.8003 10.7467 20.9736 8.91998 18.7203 8.91998C16.467 8.91998 14.6403 10.7467 14.6403 13ZM20.4804 13C20.4804 13.9721 19.6924 14.7601 18.7203 14.7601C17.7482 14.7601 16.9602 13.9721 16.9602 13C16.9602 12.0279 17.7482 11.2399 18.7203 11.2399C19.6924 11.2399 20.4804 12.0279 20.4804 13Z" fill="#FF5001"/>
<rect x="10" y="3.91998" width="13" height="2" rx="1" fill="#FF5001"/>
<rect width="13" height="2" rx="1" transform="matrix(-1 0 0 1 13 11.48)" fill="#FF5001"/>
</svg>
