<svg width="25" height="16" viewBox="0 0 25 16" fill="none" xmlns="http://www.w3.org/2000/svg">
<g id="Group">
<path id="Vector" d="M5.73043 9.52563C4.5008 9.52563 3.53247 10.8163 3.53247 12.4628C3.53247 14.1094 4.51617 15.4559 5.73043 15.4559C6.91906 15.4559 7.88227 14.1094 7.88739 12.4628C7.88739 10.8442 6.91906 9.52563 5.73043 9.52563ZM5.73043 14.0605C5.08487 14.0605 4.55716 13.3419 4.55716 12.4628C4.55716 11.5977 5.0695 10.921 5.73043 10.921C6.35036 10.921 6.85758 11.6117 6.86271 12.4628C6.86271 13.328 6.34524 14.0605 5.73043 14.0605Z" fill="black"/>
<path id="Vector_2" d="M19.7788 9.52588C18.5697 9.52588 17.6218 10.8166 17.6218 12.4631C17.6218 14.1375 18.5697 15.4561 19.7788 15.4561C20.993 15.4561 21.9767 14.1096 21.9767 12.4631C21.9767 10.8166 21.0135 9.52588 19.7788 9.52588ZM19.7788 14.0608C19.1435 14.0608 18.6465 13.3631 18.6465 12.4631C18.6465 11.584 19.1332 10.9212 19.7788 10.9212C20.4397 10.9212 20.9521 11.598 20.9521 12.4631C20.9521 13.3422 20.4243 14.0608 19.7788 14.0608Z" fill="black"/>
<path id="Vector_3" d="M16.6177 11.7655L8.81987 12.4911C8.53808 12.519 8.3229 12.8539 8.34339 13.2376C8.36389 13.6074 8.58932 13.8864 8.85574 13.8864C8.86598 13.8864 8.87623 13.8864 8.8916 13.8864L16.6895 13.1609C16.9713 13.133 17.1864 12.7981 17.166 12.4143C17.1455 12.0306 16.8995 11.7376 16.6177 11.7655Z" fill="black"/>
<path id="Vector_4" d="M24.8613 4.41885L22.233 0.672336C22.1356 0.532801 22.0024 0.456055 21.8641 0.456055H10.9409C10.8231 0.456055 10.7053 0.511872 10.6182 0.616523L6.00194 5.77233L0.909247 7.2514C0.714557 7.30722 0.560853 7.51652 0.514742 7.78164L0.0126456 10.8026C-0.00784819 10.9212 -0.00272475 11.0398 0.0228924 11.1514L0.524989 13.4468C0.591594 13.7398 0.791408 13.9491 1.01684 13.9491H2.59998C2.88177 13.9491 3.11233 13.6351 3.11233 13.2514C3.11233 12.8677 2.88177 12.5537 2.59998 12.5537H1.39597L1.04246 10.9281L1.44208 8.52117L6.28886 7.11884L23.9801 6.4142V10.4677L22.73 11.0886C22.4635 11.2212 22.3252 11.6188 22.4226 11.9816C22.5199 12.3444 22.8119 12.5328 23.0784 12.4002L24.6615 11.6119C24.8613 11.5142 24.9997 11.2491 24.9997 10.9561V4.90722C25.0048 4.72583 24.9535 4.55141 24.8613 4.41885ZM10.9256 2.06769V5.52815L7.71317 5.65373L10.9256 2.06769ZM16.1412 5.31885L11.9554 5.48629V1.8514H11.9503H16.1412V5.31885ZM20.8548 5.13047L17.1659 5.27699V1.8514H20.8548V5.13047ZM21.8795 5.09559V2.18629L23.8622 5.01187L21.8795 5.09559Z" fill="black"/>
</g>
</svg>
