<svg width="24" height="24" viewBox="0 0 24 24" fill="none" xmlns="http://www.w3.org/2000/svg">
<path d="M21.6171 10.5698H16.2946C16.189 10.5698 16.104 10.6527 16.104 10.7556V13.7891C16.104 16.4584 13.7479 18.6029 10.9566 18.3467C8.52324 18.1232 6.71559 16.039 6.71559 13.656V10.7556C6.71559 10.6527 6.63061 10.5698 6.52504 10.5698H1.20252C1.09694 10.5698 1.01196 10.6527 1.01196 10.7556V13.5731C1.01196 19.09 5.44096 23.7607 11.0957 23.9239C16.9718 24.0947 21.8077 19.4818 21.8077 13.7891V10.7556C21.8077 10.6527 21.7227 10.5698 21.6171 10.5698Z" fill="#FF5001"/>
<path d="M3.66423 7.65187C5.68561 7.65187 7.33103 6.04727 7.33103 4.07856C7.33103 2.10734 5.68561 0.505249 3.66423 0.505249C1.64286 0.505249 3.01818e-06 2.10985 3.01818e-06 4.07856C-0.00257198 6.04727 1.64286 7.65187 3.66423 7.65187Z" fill="#FF5001"/>
<path d="M18.7331 0.126089C18.6584 0.0532666 18.5374 0.0532666 18.4653 0.126089L13.6114 4.85953C13.5368 4.93235 13.5368 5.05038 13.6114 5.12069L15.9727 7.42338C16.0474 7.4962 16.1684 7.4962 16.2405 7.42338L18.4653 5.25378C18.54 5.18096 18.661 5.18096 18.7331 5.25378L20.9605 7.42589C21.0351 7.49871 21.1562 7.49871 21.2283 7.42589L23.587 5.12571C23.6616 5.05289 23.6616 4.93487 23.587 4.86455L18.7331 0.126089Z" fill="#FF5001"/>
</svg>
