<svg width="18" height="15" viewBox="0 0 18 15" fill="none" xmlns="http://www.w3.org/2000/svg">
<path d="M0.655743 1.81043C0.939066 1.53392 1.30362 1.31017 1.72105 1.15656C2.13848 1.00296 2.59754 0.923656 3.0625 0.924817H3.54613L5.73363 7.25294H17.4375V8.19044C17.4375 9.55222 16.7103 10.7722 15.39 11.6257C14.1406 12.4332 12.4263 12.8779 10.5625 12.8779H9.07328L9.38578 14.9873H1.5V7.78146L0.116758 3.77994C-0.0014267 3.44268 -0.0142784 3.08952 0.0792046 2.74792C0.172688 2.40633 0.369982 2.08551 0.655743 1.81043ZM2.75 14.0498H7.98922L7.67672 11.9404H10.5625C13.8744 11.9404 16.1875 10.3984 16.1875 8.19044H2.75V14.0498ZM1.32676 3.54466L2.60863 7.25294H4.44231L2.59465 1.90814C2.13868 2.00088 1.74984 2.2247 1.51247 2.53107C1.2751 2.83743 1.20835 3.20162 1.32668 3.54466H1.32676Z" fill="black"/>
</svg>
