<svg width="20" height="16" viewBox="0 0 20 16" fill="none" xmlns="http://www.w3.org/2000/svg">
<path d="M18.6667 8.72278H2.66667V3.11173C2.66589 2.90042 2.72115 2.69109 2.82924 2.49587C2.93733 2.30065 3.09611 2.1234 3.29638 1.9744L3.31304 1.96193C3.6269 1.72746 4.02986 1.57121 4.46688 1.51451C4.9039 1.45781 5.35365 1.50344 5.75471 1.64515C5.37595 2.11629 5.21851 2.66862 5.30743 3.21437C5.39635 3.76012 5.72651 4.26799 6.24546 4.65726L6.70175 4.99863L5.86188 5.62701L6.80463 6.33232L7.6445 5.70397L12.2982 2.22241L13.1381 1.59406L12.1953 0.88872L11.3554 1.51707L10.8991 1.17569C10.3528 0.768123 9.63264 0.516881 8.86416 0.46575C8.09568 0.414619 7.32758 0.566841 6.69371 0.89589C6.0253 0.580085 5.23319 0.44375 4.44752 0.509281C3.66185 0.574812 2.92932 0.838312 2.37029 1.25649L2.35363 1.26896C2.02914 1.51039 1.77189 1.79757 1.59676 2.11389C1.42162 2.4302 1.33209 2.76936 1.33333 3.11173V8.72278H0V9.72031H1.33333V10.6773C1.3333 10.7577 1.35064 10.8376 1.38467 10.9139L2.625 13.6976C2.69119 13.8466 2.81847 13.9763 2.98875 14.0681C3.15904 14.1599 3.36367 14.2093 3.57358 14.2092H4.11108L3.625 15.4561H5.01388L5.5 14.2092H14.1708L14.6708 15.4561H16.0625L15.5625 14.2092H16.4263C16.6362 14.2093 16.8409 14.16 17.0112 14.0681C17.1815 13.9763 17.3088 13.8466 17.375 13.6976L18.6152 10.9139C18.6493 10.8376 18.6666 10.7577 18.6667 10.6773V9.72031H20V8.72278H18.6667ZM7.18833 1.88104C7.55566 1.60682 8.05339 1.45281 8.57231 1.45281C9.09123 1.45281 9.58896 1.60682 9.95629 1.88104L10.4125 2.22241L7.64462 4.29317L7.18833 3.95186C6.82182 3.67704 6.61599 3.30467 6.61599 2.91645C6.61599 2.52823 6.82182 2.15586 7.18833 1.88104ZM17.3333 10.6368L16.1862 13.2116H3.81383L2.66667 10.6368V9.72031H17.3333V10.6368Z" fill="black"/>
</svg>
