<svg width="25" height="16" viewBox="0 0 25 16" fill="none" xmlns="http://www.w3.org/2000/svg">
<path d="M23.2235 7.08619H22.9771V3.03346C22.9771 1.61229 21.815 0.456055 20.3868 0.456055H4.61316C3.18491 0.456055 2.02285 1.61229 2.02285 3.03346V7.08619H1.77634C0.796902 7.08619 0 7.8791 0 8.85371V11.4724C0 12.447 0.796902 13.2399 1.77642 13.2399H3.97261V14.9033C3.97261 15.2086 4.22134 15.4561 4.52816 15.4561C4.83498 15.4561 5.08371 15.2086 5.08371 14.9033V13.2399H19.9163V14.9033C19.9163 15.2086 20.165 15.4561 20.4718 15.4561C20.7787 15.4561 21.0274 15.2086 21.0274 14.9033V13.2399H23.2236C24.2031 13.2399 25 12.447 25 11.4724V8.85371C24.9999 7.8791 24.203 7.08619 23.2235 7.08619ZM3.13396 3.03346C3.13396 2.22191 3.79745 1.56159 4.61316 1.56159H20.3868C21.2024 1.56159 21.866 2.22183 21.866 3.03346V7.08619H21.1537V5.97616C21.1537 5.2683 20.575 4.69247 19.8637 4.69247H14.1689C13.4574 4.69247 12.8786 5.2683 12.8786 5.97616V7.08619H12.1212V5.97616C12.1212 5.2683 11.5424 4.69247 10.8309 4.69247H5.13625C4.42491 4.69247 3.84618 5.2683 3.84618 5.97616V7.08619H3.13396V3.03346ZM13.9897 7.08619V5.97616C13.9897 5.87958 14.0718 5.79801 14.1689 5.79801H19.8637C19.9607 5.79801 20.0426 5.87958 20.0426 5.97616V7.08619H13.9897ZM4.95729 7.08619V5.97616C4.95729 5.87958 5.03919 5.79801 5.13625 5.79801H10.831C10.9281 5.79801 11.0102 5.87958 11.0102 5.97616V7.08619H4.95729ZM23.8888 11.4724C23.8888 11.8374 23.5903 12.1344 23.2235 12.1344H1.77642C1.4096 12.1344 1.11111 11.8374 1.11111 11.4724V8.85371C1.11111 8.48873 1.4096 8.19173 1.77642 8.19173H23.2235C23.5903 8.19173 23.8888 8.48873 23.8888 8.85371V11.4724Z" fill="black"/>
</svg>
